<svg width="100" height="100" viewBox="0 0 100 100" xmlns="http://www.w3.org/2000/svg">
  <path d="M33,18 Q30,10 28,9 Q24,13 26,20 Z" fill="#5D4037"/>
  <path d="M67,18 Q70,10 72,9 Q76,13 74,20 Z" fill="#5D4037"/>
  <path d="M18,38 Q18,12 50,12 Q82,12 82,38 L82,62 Q82,88 50,88 Q18,88 18,62 Z" fill="#F5E6CA"/>
  <ellipse cx="14" cy="35" rx="10" ry="14" fill="#F5E6CA" transform="rotate(-30 14 35)"/>
  <ellipse cx="86" cy="35" rx="10" ry="14" fill="#F5E6CA" transform="rotate(30 86 35)"/>
  <ellipse cx="15" cy="35" rx="6" ry="9" fill="#EAB8A1" transform="rotate(-30 15 35)"/>
  <ellipse cx="85" cy="35" rx="6" ry="9" fill="#EAB8A1" transform="rotate(30 85 35)"/>
  <path d="M38,22 Q42,18 48,20 Q54,22 52,28 Q50,34 44,32 Q36,30 38,22 Z" fill="#5D4037" opacity="0.7"/>
  <path d="M33,46 Q38,40 43,46" stroke="#5D4037" stroke-width="3" fill="none" stroke-linecap="round"/>
  <path d="M57,46 Q62,40 67,46" stroke="#5D4037" stroke-width="3" fill="none" stroke-linecap="round"/>
  <rect x="28" y="36" width="20" height="14" rx="4" fill="#1A1A2E" opacity="0.85"/>
  <rect x="52" y="36" width="20" height="14" rx="4" fill="#1A1A2E" opacity="0.85"/>
  <path d="M31,39 Q33,38 35,39" stroke="white" stroke-width="1.2" fill="none" opacity="0.35" stroke-linecap="round"/>
  <path d="M55,39 Q57,38 59,39" stroke="white" stroke-width="1.2" fill="none" opacity="0.35" stroke-linecap="round"/>
  <path d="M48,42 Q50,39 52,42" stroke="#1A1A2E" stroke-width="2.5" fill="none" stroke-linecap="round"/>
  <path d="M28,37 L48,37" stroke="#1A1A2E" stroke-width="2" fill="none" stroke-linecap="round"/>
  <path d="M52,37 L72,37" stroke="#1A1A2E" stroke-width="2" fill="none" stroke-linecap="round"/>
  <path d="M28,39 L20,35" stroke="#1A1A2E" stroke-width="2" fill="none" stroke-linecap="round"/>
  <path d="M72,39 L80,35" stroke="#1A1A2E" stroke-width="2" fill="none" stroke-linecap="round"/>
  <rect x="33" y="58" width="34" height="20" rx="10" fill="#EAB8A1"/>
  <circle cx="42" cy="68" r="2.5" fill="#5D4037" opacity="0.6"/>
  <circle cx="58" cy="68" r="2.5" fill="#5D4037" opacity="0.6"/>
  <rect x="43" y="79" width="15" height="4" rx="4" fill="#5D4037" opacity="0.6"/>

</svg>
